<?xml version="1.0" standalone="no"?>
<!DOCTYPE svg PUBLIC "-//W3C//DTD SVG 20010904//EN"
 "http://www.w3.org/TR/2001/REC-SVG-20010904/DTD/svg10.dtd">
<svg version="1.0" xmlns="http://www.w3.org/2000/svg"
 width="226.000000pt" height="226.000000pt" viewBox="0 0 226.000000 226.000000"
 preserveAspectRatio="xMidYMid meet">

<g transform="translate(0.000000,226.000000) scale(0.100000,-0.100000)"
fill="#000000" stroke="none">
<path d="M968 2250 c-456 -72 -815 -398 -935 -848 -24 -87 -26 -115 -26 -272
0 -156 2 -185 25 -271 71 -263 216 -480 430 -639 370 -277 893 -292 1281 -37
525 344 674 1041 334 1560 -154 237 -400 413 -675 484 -108 27 -330 39 -434
23z m256 -566 c19 -18 20 -28 6 -55 -19 -35 -80 -18 -80 22 0 21 26 49 45 49
7 0 21 -7 29 -16z m264 -64 c18 -11 40 -37 49 -58 20 -45 22 -172 4 -253 l-12
-57 -35 8 c-20 5 -37 10 -39 12 -2 1 1 23 5 48 13 63 12 187 0 211 -35 64
-127 -53 -178 -226 -52 -177 -72 -414 -43 -515 14 -48 81 -125 103 -118 14 5
84 355 74 365 -3 4 -23 9 -43 12 -35 6 -38 9 -35 36 5 54 4 53 94 38 45 -8 84
-15 84 -16 1 -1 -3 -26 -8 -55 -6 -29 -9 -54 -7 -57 2 -2 33 4 69 12 132 33
349 17 486 -35 44 -16 49 -21 47 -46 -6 -84 -115 -216 -224 -270 -108 -54
-197 -70 -389 -71 -151 0 -168 2 -206 22 -44 23 -88 70 -99 103 -9 28 -21 25
-34 -9 -16 -38 -78 -97 -121 -114 -83 -34 -350 -29 -494 8 -151 40 -284 140
-338 255 -44 93 -44 97 -1 115 182 77 456 78 632 3 24 -10 45 -17 46 -16 2 2
-13 148 -32 326 -20 177 -33 326 -29 329 3 3 32 6 63 6 140 -2 243 -83 298
-235 14 -37 25 -57 28 -48 41 116 57 153 90 202 39 58 104 108 142 108 11 0
35 -9 53 -20z m-794 -46 c9 -8 16 -22 16 -29 0 -19 -28 -45 -49 -45 -39 0 -57
60 -23 79 24 15 38 13 56 -5z m1004 4 c7 -7 12 -25 12 -40 0 -21 -6 -29 -25
-34 -31 -8 -55 10 -55 40 0 26 18 46 40 46 9 0 21 -5 28 -12z m-1131 -148 c78
-21 167 -58 219 -91 l33 -20 -22 -34 -22 -34 -43 25 c-59 35 -172 76 -190 69
-21 -8 -11 -122 17 -195 11 -30 20 -55 18 -56 -1 -1 -16 -9 -34 -18 -32 -16
-32 -16 -48 13 -23 46 -45 140 -45 196 0 69 20 165 34 165 6 0 44 -9 83 -20z
m1376 -15 c18 -61 12 -206 -12 -275 -12 -36 -26 -69 -31 -73 -8 -9 -70 18 -70
31 0 4 9 31 20 60 13 34 20 76 20 123 l0 72 -32 -7 c-18 -4 -73 -26 -121 -49
l-88 -43 -19 30 c-10 17 -16 34 -14 38 9 15 137 74 204 96 120 38 130 38 143
-3z"/>
<path d="M900 1518 c0 -30 92 -853 96 -857 12 -12 63 42 90 96 42 82 59 198
51 363 -8 170 -35 263 -97 334 -49 56 -140 97 -140 64z"/>
<path d="M341 925 c-35 -8 -66 -17 -69 -19 -10 -11 23 -69 65 -112 52 -54 161
-108 258 -129 40 -8 123 -15 193 -15 l124 0 -6 50 c-20 166 -13 148 -68 176
-120 61 -340 83 -497 49z"/>
<path d="M1558 921 c-37 -9 -70 -20 -74 -24 -3 -3 -15 -54 -26 -112 -17 -90
-18 -109 -7 -116 18 -12 186 -1 268 17 82 18 142 45 193 86 42 33 101 115 93
129 -3 4 -36 15 -75 23 -95 22 -284 20 -372 -3z"/>
</g>
</svg>
