<?xml version="1.0" standalone="no"?>
<!DOCTYPE svg PUBLIC "-//W3C//DTD SVG 20010904//EN"
 "http://www.w3.org/TR/2001/REC-SVG-20010904/DTD/svg10.dtd">
<svg version="1.0" xmlns="http://www.w3.org/2000/svg"
 width="2384.000000pt" height="2384.000000pt" viewBox="0 0 2384.000000 2384.000000"
 preserveAspectRatio="xMidYMid meet">

<g transform="translate(0.000000,2384.000000) scale(0.100000,-0.100000)"
fill="#000000" stroke="none">
<path d="M11475 23834 c-392 -18 -800 -53 -1142 -99 -2411 -323 -4649 -1369
-6458 -3020 -166 -151 -597 -582 -746 -745 -1583 -1737 -2607 -3851 -2978
-6150 -59 -364 -105 -784 -133 -1205 -17 -260 -17 -1136 0 -1385 37 -546 88
-974 173 -1445 391 -2167 1377 -4174 2869 -5840 164 -183 669 -691 840 -846
807 -728 1658 -1316 2605 -1800 1727 -883 3634 -1326 5585 -1296 707 11 1296
67 1965 188 2167 391 4173 1376 5840 2869 181 162 689 667 846 840 1570 1739
2580 3834 2948 6120 59 364 105 784 133 1205 17 260 17 1136 0 1385 -37 546
-88 974 -173 1445 -397 2200 -1409 4240 -2934 5910 -151 166 -582 597 -745
746 -1846 1683 -4113 2731 -6575 3039 -187 23 -533 55 -760 71 -159 10 -1007
20 -1160 13z m3850 -5424 c128 -19 284 -75 403 -146 136 -80 294 -235 389
-378 25 -39 54 -83 64 -97 67 -100 168 -358 219 -557 74 -295 101 -536 107
-965 10 -641 -57 -1256 -243 -2246 -19 -102 -36 -186 -38 -188 -2 -2 -32 3
-67 11 -93 21 -273 60 -444 96 -314 64 -376 81 -371 99 9 32 46 229 71 381 14
85 30 171 35 190 5 19 32 193 59 385 109 768 127 1302 60 1765 -47 330 -164
585 -300 656 -55 28 -135 24 -194 -11 -480 -280 -973 -1087 -1348 -2206 -249
-741 -440 -1536 -612 -2544 -87 -510 -187 -1294 -214 -1680 -31 -436 -35 -555
-35 -950 0 -564 21 -857 94 -1285 92 -537 248 -954 487 -1300 70 -102 213
-248 326 -333 123 -92 349 -198 474 -220 28 -6 32 -3 37 21 3 15 24 133 46
262 23 129 56 325 76 435 76 440 178 1028 204 1180 11 66 40 237 65 380 25
143 66 377 90 520 25 143 62 361 84 485 160 922 191 1103 191 1125 0 18 -14
23 -127 43 -139 25 -312 57 -523 97 -74 14 -175 33 -225 41 -49 8 -99 19 -111
24 l-21 8 23 144 c13 78 40 247 59 373 47 305 69 433 77 440 3 3 39 -1 79 -10
41 -9 135 -27 209 -40 239 -43 303 -55 405 -75 200 -39 322 -62 430 -80 61
-11 144 -26 185 -34 128 -25 342 -65 405 -76 33 -5 92 -17 131 -26 l72 -15
-10 -42 c-5 -23 -25 -132 -43 -242 -19 -110 -55 -321 -80 -470 -98 -562 -112
-650 -108 -655 2 -2 54 12 116 32 107 35 189 61 342 106 96 29 473 121 565
137 41 8 109 21 150 29 207 41 621 96 860 115 765 62 1624 15 2405 -130 200
-37 545 -115 664 -150 35 -11 70 -19 77 -19 7 0 50 -11 96 -25 243 -75 296
-92 448 -142 91 -30 185 -63 210 -72 25 -10 83 -33 130 -51 47 -18 103 -41
125 -50 22 -10 74 -32 115 -50 166 -71 479 -231 476 -243 -7 -22 -96 -300
-138 -427 -192 -591 -443 -1103 -763 -1560 -61 -88 -175 -239 -218 -289 -116
-136 -149 -174 -227 -256 -388 -414 -842 -753 -1375 -1029 -267 -139 -654
-295 -970 -391 -66 -20 -131 -41 -145 -46 -14 -5 -124 -33 -245 -63 -593 -147
-1196 -229 -1950 -266 -278 -13 -1122 -13 -1455 1 -146 6 -359 11 -475 10
-486 -2 -768 58 -1120 236 -257 131 -459 290 -673 533 -85 95 -211 264 -266
356 -130 214 -244 447 -312 637 -9 26 -20 47 -23 47 -4 0 -22 -37 -40 -83 -46
-111 -163 -354 -213 -441 -95 -165 -153 -262 -160 -271 -5 -5 -41 -56 -81
-111 -116 -163 -148 -202 -268 -329 -223 -236 -460 -414 -709 -533 -284 -135
-490 -185 -835 -202 -104 -5 -244 -14 -310 -20 -66 -6 -201 -17 -300 -25 -611
-49 -1703 -49 -2210 0 -372 36 -456 45 -545 59 -52 9 -142 22 -200 31 -334 48
-822 154 -1095 236 -190 57 -449 142 -473 155 -15 8 -33 14 -40 14 -11 0 -64
20 -212 80 -88 36 -446 200 -515 236 -897 467 -1568 1065 -2098 1871 -192 292
-419 740 -543 1073 -96 254 -258 756 -251 775 3 7 93 56 199 108 172 84 225
109 383 177 130 56 425 163 575 210 58 17 130 40 160 51 30 10 82 26 115 34
33 9 101 28 150 41 417 116 970 221 1440 273 284 32 389 39 717 52 532 20
1106 -14 1623 -97 190 -30 468 -82 510 -95 17 -5 68 -17 115 -28 144 -32 406
-103 525 -141 205 -66 346 -114 400 -135 33 -13 103 -40 155 -60 101 -38 113
-43 315 -130 142 -61 146 -62 354 -165 79 -39 146 -69 148 -67 4 5 -20 268
-42 457 -8 69 -22 199 -30 290 -9 91 -22 230 -30 310 -17 160 -57 561 -80 795
-8 83 -22 215 -31 295 -8 80 -26 258 -39 395 -13 138 -36 363 -50 500 -57 558
-116 1151 -165 1645 -11 113 -32 313 -45 445 -14 132 -39 377 -55 545 -42 431
-105 1058 -134 1335 -9 77 -22 217 -31 310 -20 217 -44 454 -50 481 -4 20 3
23 88 42 50 12 146 31 212 43 66 12 140 25 165 30 25 5 128 12 230 15 219 8
378 -4 605 -46 225 -41 337 -73 580 -164 96 -36 321 -149 430 -215 167 -102
191 -119 348 -242 308 -241 599 -569 834 -939 101 -160 124 -200 236 -415 200
-387 379 -876 503 -1377 27 -109 52 -198 55 -198 4 0 11 17 17 38 5 20 26 96
45 167 102 379 318 1049 377 1170 6 11 19 45 29 75 100 283 341 788 521 1090
349 585 726 986 1122 1193 111 58 239 105 322 117 76 11 231 11 311 0z
m-10171 -1941 c133 -45 279 -97 326 -116 47 -20 110 -45 140 -58 154 -62 546
-251 695 -335 28 -15 79 -43 115 -63 87 -46 207 -115 250 -142 19 -12 78 -48
130 -80 220 -135 461 -295 660 -440 45 -33 95 -69 110 -80 89 -64 345 -269
583 -467 l198 -165 4 -119 c2 -65 11 -180 19 -254 9 -74 29 -299 46 -500 16
-201 32 -375 34 -387 2 -13 -1 -23 -6 -23 -5 0 -39 25 -76 55 -412 337 -548
445 -560 445 -6 0 -59 41 -119 91 -59 50 -142 119 -183 153 -347 291 -720 563
-1070 782 -151 94 -193 119 -400 239 -96 56 -591 305 -605 305 -24 0 -118
-429 -159 -725 -54 -388 -52 -966 5 -1365 37 -262 122 -656 180 -837 11 -33
33 -108 48 -165 16 -56 38 -136 50 -175 11 -40 21 -84 21 -97 0 -22 36 -128
120 -346 55 -146 61 -163 58 -166 -2 -2 -24 5 -48 14 -65 25 -455 24 -723 -2
-157 -15 -201 -16 -207 -7 -4 7 -13 59 -20 116 -10 79 -16 104 -29 108 -11 3
-24 34 -40 98 -13 52 -36 135 -51 184 -320 1027 -393 2069 -214 3065 73 408
177 778 340 1210 26 69 63 171 83 227 20 57 40 103 45 103 5 0 118 -37 250
-81z m15071 -21 c21 -57 59 -159 85 -228 142 -376 234 -691 305 -1034 49 -239
61 -313 90 -556 39 -336 51 -652 37 -953 -11 -228 -46 -588 -73 -742 -51 -302
-126 -621 -228 -975 -23 -80 -52 -180 -64 -222 -12 -43 -27 -78 -33 -78 -10 0
-28 -80 -41 -192 -6 -46 15 -45 -289 -17 -277 25 -581 23 -651 -4 -52 -19 -53
-15 -19 70 14 33 38 98 55 144 16 46 44 125 62 174 18 50 33 101 34 115 2 25
58 228 95 345 102 328 182 720 227 1115 21 194 25 801 5 980 -45 406 -147 920
-183 920 -26 0 -568 -283 -774 -404 -71 -42 -136 -81 -175 -106 -25 -16 -61
-39 -80 -50 -110 -64 -377 -248 -570 -392 -237 -178 -240 -180 -515 -409 -137
-114 -252 -207 -255 -206 -8 3 -69 -42 -185 -138 -60 -50 -177 -145 -259 -210
-81 -66 -162 -131 -179 -144 l-30 -25 7 90 c4 49 18 204 32 344 42 431 73 818
67 841 -4 13 0 25 8 29 8 5 131 106 274 225 240 200 575 459 755 584 121 83
334 226 345 230 6 2 28 16 50 31 68 46 276 172 397 240 15 8 63 35 105 59 162
92 577 297 763 376 47 20 94 40 105 45 59 26 164 66 280 106 72 24 180 62 240
83 61 21 117 39 126 40 11 1 27 -29 54 -101z"/>
<path d="M9300 17134 c0 -25 11 -138 46 -489 8 -82 28 -287 45 -455 16 -168
40 -408 54 -535 13 -126 31 -306 40 -400 8 -93 24 -251 35 -350 11 -99 31
-301 45 -450 14 -148 27 -283 30 -300 4 -28 34 -323 70 -695 8 -85 19 -193 25
-240 5 -47 23 -229 40 -405 17 -176 39 -399 50 -495 10 -96 29 -278 40 -405
11 -126 27 -282 35 -345 7 -63 19 -169 25 -235 6 -66 24 -253 41 -415 16 -162
41 -412 54 -555 38 -400 76 -729 83 -735 4 -3 7 -50 8 -105 1 -55 11 -188 23
-295 12 -107 35 -330 51 -495 16 -165 41 -412 55 -550 13 -137 32 -317 40
-400 8 -82 24 -235 35 -340 10 -104 26 -264 35 -355 18 -198 31 -310 38 -317
16 -15 137 44 267 130 146 97 258 202 406 382 52 64 174 239 174 250 0 3 15
30 34 59 89 139 254 518 334 766 84 264 158 551 197 772 14 78 30 161 35 183
27 122 103 716 119 945 44 597 58 1151 42 1712 -17 640 -38 958 -96 1433 -96
789 -282 1512 -532 2065 -44 98 -164 335 -178 350 -7 8 -23 35 -35 60 -36 70
-176 274 -270 391 -176 220 -367 399 -569 534 -244 163 -490 266 -784 329 -65
15 -134 26 -153 26 -30 0 -34 -3 -34 -26z"/>
<path d="M4670 10145 c-715 -47 -1427 -189 -2147 -427 -101 -34 -183 -65 -183
-69 0 -12 85 -196 141 -304 107 -208 230 -417 313 -533 186 -259 317 -414 511
-607 396 -394 851 -703 1410 -955 88 -40 189 -84 225 -97 36 -13 74 -28 85
-33 90 -43 573 -195 775 -244 757 -185 1505 -266 2432 -266 416 0 1167 31
1195 49 10 6 -1 142 -62 721 -14 135 -32 319 -40 410 -9 91 -22 224 -30 295
-12 111 -42 413 -60 605 -12 136 -36 334 -41 342 -7 11 -91 65 -186 119 -40
23 -93 53 -118 67 -161 93 -487 254 -680 337 -47 20 -98 43 -115 50 -31 14
-179 71 -272 106 -127 46 -166 59 -293 99 -74 23 -153 48 -175 55 -42 14 -225
62 -335 89 -403 97 -901 171 -1320 195 -241 14 -783 12 -1030 -4z"/>
<path d="M18053 10145 c-110 -8 -234 -18 -275 -24 -40 -6 -134 -18 -208 -26
-190 -22 -530 -85 -730 -135 -41 -10 -102 -26 -135 -34 -213 -53 -538 -154
-715 -223 -36 -14 -105 -41 -155 -60 -49 -19 -108 -43 -130 -53 l-39 -18 -22
-128 c-12 -71 -41 -237 -64 -369 -54 -311 -101 -584 -254 -1475 -110 -637
-129 -750 -125 -754 12 -12 936 -17 1234 -7 321 11 376 14 745 46 332 29 910
124 1150 189 30 8 107 29 170 46 434 118 823 274 1176 470 82 46 160 91 174
100 14 10 68 45 120 80 351 233 686 541 915 841 22 28 52 66 66 83 41 49 189
271 258 386 105 176 299 580 280 580 -2 0 -71 23 -154 51 -208 71 -404 128
-645 188 -535 134 -1034 213 -1555 247 -269 17 -808 16 -1082 -1z"/>
</g>
</svg>